<svg width="1080" height="1080" viewBox="0 0 1080 1080" fill="none" xmlns="http://www.w3.org/2000/svg">
<path d="M214 472.531C214 424.397 225.413 381.588 248.238 344.1C271.063 306.149 302.764 276.761 343.342 255.934C384.427 234.645 430.838 224 482.574 224C545.978 224 600.248 239.273 645.393 269.819C690.537 300.364 720.715 342.017 735.932 394.778H592.895C582.243 374.414 567.027 358.91 547.245 348.265C527.969 337.621 505.905 332.298 481.053 332.298C440.983 332.298 408.52 345.026 383.666 370.48C358.812 395.935 346.385 429.951 346.385 472.531C346.385 515.111 358.812 549.127 383.666 574.581C408.52 600.035 440.983 612.763 481.053 612.763C505.905 612.763 527.969 607.442 547.245 596.796C567.027 586.15 582.243 570.648 592.895 550.283H735.932C720.715 603.044 690.537 644.697 645.393 675.243C600.248 705.327 545.978 720.367 482.574 720.367C430.838 720.367 384.427 709.954 343.342 689.127C302.764 667.839 271.063 638.449 248.238 600.961C225.413 563.474 214 520.664 214 472.531Z" fill="#FFC947"/>
<path d="M833.242 514.6V581.176H734.182V855.74H643.11V581.176H544.05V514.6H833.242Z" fill="#FFC947"/>
</svg>
