<svg width="524" height="524" viewBox="0 0 524 524" fill="none" xmlns="http://www.w3.org/2000/svg">
<path d="M103.83 229.265C103.83 205.911 109.367 185.141 120.441 166.952C131.516 148.539 146.897 134.28 166.584 124.175C186.518 113.846 209.036 108.681 234.138 108.681C264.901 108.681 291.232 116.092 313.135 130.912C335.038 145.732 349.68 165.942 357.063 191.54H287.664C282.496 181.66 275.113 174.138 265.515 168.973C256.163 163.808 245.458 161.226 233.4 161.226C213.959 161.226 198.208 167.401 186.149 179.752C174.09 192.102 168.061 208.606 168.061 229.265C168.061 249.924 174.09 266.429 186.149 278.778C198.208 291.128 213.959 297.304 233.4 297.304C245.458 297.304 256.163 294.722 265.515 289.557C275.113 284.391 282.496 276.87 287.664 266.989H357.063C349.68 292.588 335.038 312.798 313.135 327.618C291.232 342.214 264.901 349.512 234.138 349.512C209.036 349.512 186.518 344.459 166.584 334.354C146.897 324.026 131.516 309.766 120.441 291.578C109.367 273.389 103.83 252.619 103.83 229.265Z" fill="#2F55D4"/>
<path d="M404.277 249.677V281.978H356.214V415.192H312.027V281.978H263.965V249.677H404.277Z" fill="#2F55D4"/>
</svg>
