<svg width="1080" height="1080" viewBox="0 0 1080 1080" fill="none" xmlns="http://www.w3.org/2000/svg">
<g clip-path="url(#clip0_1_2)">
<path d="M422.95 557.8C420.15 557.8 417.55 557.367 415.15 556.5C412.783 555.6 410.717 554.333 408.95 552.7C407.217 551.067 405.867 549.133 404.9 546.9C403.933 544.667 403.45 542.2 403.45 539.5C403.45 536.8 403.933 534.333 404.9 532.1C405.867 529.867 407.217 527.933 408.95 526.3C410.717 524.667 412.783 523.417 415.15 522.55C417.55 521.65 420.15 521.2 422.95 521.2C426.383 521.2 429.417 521.8 432.05 523C434.717 524.2 436.917 525.933 438.65 528.2L431.2 534.85C430.167 533.55 429.017 532.55 427.75 531.85C426.517 531.117 425.117 530.75 423.55 530.75C422.317 530.75 421.2 530.95 420.2 531.35C419.2 531.75 418.333 532.333 417.6 533.1C416.9 533.867 416.35 534.8 415.95 535.9C415.55 536.967 415.35 538.167 415.35 539.5C415.35 540.833 415.55 542.05 415.95 543.15C416.35 544.217 416.9 545.133 417.6 545.9C418.333 546.667 419.2 547.25 420.2 547.65C421.2 548.05 422.317 548.25 423.55 548.25C425.117 548.25 426.517 547.9 427.75 547.2C429.017 546.467 430.167 545.45 431.2 544.15L438.65 550.8C436.917 553.033 434.717 554.767 432.05 556C429.417 557.2 426.383 557.8 422.95 557.8ZM442.057 557V522H453.857V547.85H469.657V557H442.057ZM490.778 557.8C487.945 557.8 485.311 557.35 482.878 556.45C480.478 555.55 478.395 554.283 476.628 552.65C474.861 550.983 473.478 549.033 472.478 546.8C471.511 544.567 471.028 542.133 471.028 539.5C471.028 536.833 471.511 534.4 472.478 532.2C473.478 529.967 474.861 528.033 476.628 526.4C478.395 524.733 480.478 523.45 482.878 522.55C485.311 521.65 487.945 521.2 490.778 521.2C493.645 521.2 496.278 521.65 498.678 522.55C501.078 523.45 503.161 524.733 504.928 526.4C506.695 528.033 508.061 529.967 509.028 532.2C510.028 534.4 510.528 536.833 510.528 539.5C510.528 542.133 510.028 544.567 509.028 546.8C508.061 549.033 506.695 550.983 504.928 552.65C503.161 554.283 501.078 555.55 498.678 556.45C496.278 557.35 493.645 557.8 490.778 557.8ZM490.778 548.25C491.878 548.25 492.895 548.05 493.828 547.65C494.795 547.25 495.628 546.683 496.328 545.95C497.061 545.183 497.628 544.267 498.028 543.2C498.428 542.1 498.628 540.867 498.628 539.5C498.628 538.133 498.428 536.917 498.028 535.85C497.628 534.75 497.061 533.833 496.328 533.1C495.628 532.333 494.795 531.75 493.828 531.35C492.895 530.95 491.878 530.75 490.778 530.75C489.678 530.75 488.645 530.95 487.678 531.35C486.745 531.75 485.911 532.333 485.178 533.1C484.478 533.833 483.928 534.75 483.528 535.85C483.128 536.917 482.928 538.133 482.928 539.5C482.928 540.867 483.128 542.1 483.528 543.2C483.928 544.267 484.478 545.183 485.178 545.95C485.911 546.683 486.745 547.25 487.678 547.65C488.645 548.05 489.678 548.25 490.778 548.25ZM531.561 557.8C526.194 557.8 522.011 556.35 519.011 553.45C516.011 550.55 514.511 546.483 514.511 541.25V522H526.311V540.9C526.311 543.567 526.794 545.467 527.761 546.6C528.728 547.7 530.028 548.25 531.661 548.25C533.328 548.25 534.628 547.7 535.561 546.6C536.528 545.467 537.011 543.567 537.011 540.9V522H548.611V541.25C548.611 546.483 547.111 550.55 544.111 553.45C541.111 556.35 536.928 557.8 531.561 557.8ZM554.02 557V522H571.27C575.17 522 578.603 522.717 581.57 524.15C584.537 525.55 586.853 527.55 588.52 530.15C590.187 532.75 591.02 535.85 591.02 539.45C591.02 543.083 590.187 546.217 588.52 548.85C586.853 551.45 584.537 553.467 581.57 554.9C578.603 556.3 575.17 557 571.27 557H554.02ZM565.82 547.8H570.77C572.437 547.8 573.887 547.483 575.12 546.85C576.387 546.217 577.37 545.283 578.07 544.05C578.77 542.783 579.12 541.25 579.12 539.45C579.12 537.683 578.77 536.183 578.07 534.95C577.37 533.717 576.387 532.783 575.12 532.15C573.887 531.517 572.437 531.2 570.77 531.2H565.82V547.8ZM602.44 557V531.15H592.19V522H624.49V531.15H614.24V557H602.44ZM638.355 535H653.955V543.5H638.355V535ZM639.155 548.1H656.655V557H627.555V522H656.005V530.9H639.155V548.1ZM679.298 557.8C676.498 557.8 673.898 557.367 671.498 556.5C669.131 555.6 667.064 554.333 665.298 552.7C663.564 551.067 662.214 549.133 661.248 546.9C660.281 544.667 659.798 542.2 659.798 539.5C659.798 536.8 660.281 534.333 661.248 532.1C662.214 529.867 663.564 527.933 665.298 526.3C667.064 524.667 669.131 523.417 671.498 522.55C673.898 521.65 676.498 521.2 679.298 521.2C682.731 521.2 685.764 521.8 688.398 523C691.064 524.2 693.264 525.933 694.998 528.2L687.548 534.85C686.514 533.55 685.364 532.55 684.098 531.85C682.864 531.117 681.464 530.75 679.898 530.75C678.664 530.75 677.548 530.95 676.548 531.35C675.548 531.75 674.681 532.333 673.948 533.1C673.248 533.867 672.698 534.8 672.298 535.9C671.898 536.967 671.698 538.167 671.698 539.5C671.698 540.833 671.898 542.05 672.298 543.15C672.698 544.217 673.248 545.133 673.948 545.9C674.681 546.667 675.548 547.25 676.548 547.65C677.548 548.05 678.664 548.25 679.898 548.25C681.464 548.25 682.864 547.9 684.098 547.2C685.364 546.467 686.514 545.45 687.548 544.15L694.998 550.8C693.264 553.033 691.064 554.767 688.398 556C685.764 557.2 682.731 557.8 679.298 557.8Z" fill="#FFC947"/>
<path d="M308.307 604.017C308.039 656.937 249.397 667.17 220.109 665.672C149.802 665.317 136.239 618.898 138.246 595.733C77.7671 595.427 66.6568 549.921 68.6616 527.206C68.8935 481.306 112.43 468.251 134.169 467.461C134.393 423.181 192.408 412.404 221.388 412.551C291.695 412.906 309.06 454.844 308.954 475.769" stroke="#FFC947" stroke-width="36"/>
<path fill-rule="evenodd" clip-rule="evenodd" d="M234.868 539.076C234.915 529.756 226.048 522.156 215.062 522.1C204.076 522.045 195.132 529.555 195.085 538.875C195.038 548.194 203.906 555.795 214.891 555.85C225.877 555.906 234.821 548.395 234.868 539.076ZM226.911 539.036C226.94 533.444 221.619 528.884 215.028 528.85C208.436 528.817 203.07 533.323 203.042 538.915C203.014 544.507 208.334 549.067 214.926 549.1C221.517 549.133 226.883 544.627 226.911 539.036Z" fill="#FFC947"/>
<path fill-rule="evenodd" clip-rule="evenodd" d="M390.817 539.864C390.864 530.544 381.997 522.944 371.011 522.888C360.024 522.833 351.081 530.343 351.034 539.663C350.987 548.982 359.854 556.582 370.84 556.638C381.826 556.693 390.77 549.183 390.817 539.864ZM382.86 539.823C382.888 534.232 377.568 529.672 370.976 529.638C364.385 529.605 359.019 534.111 358.99 539.703C358.962 545.295 364.283 549.855 370.874 549.888C377.465 549.921 382.832 545.415 382.86 539.823Z" fill="#FFC947"/>
<path d="M230.091 539.727L358.191 540.374Z" fill="#FFC947"/>
<path d="M230.091 539.727L358.191 540.374" stroke="#FFC947" stroke-width="24"/>
<path d="M796.458 473.613C796.811 420.694 855.47 410.556 884.756 412.102C955.062 412.571 968.549 459.012 966.504 482.174C1026.98 482.578 1038.02 528.103 1035.98 550.815C1035.67 596.714 992.113 609.698 970.373 610.453C970.077 654.732 912.044 665.415 883.065 665.221C812.758 664.751 795.461 622.785 795.601 601.86" stroke="#FFC947" stroke-width="36"/>
<path fill-rule="evenodd" clip-rule="evenodd" d="M742.868 540.076C742.915 530.756 734.048 523.156 723.062 523.1C712.076 523.045 703.132 530.555 703.085 539.875C703.038 549.194 711.906 556.795 722.891 556.85C733.877 556.906 742.821 549.395 742.868 540.076ZM734.911 540.036C734.94 534.444 729.619 529.884 723.028 529.85C716.436 529.817 711.07 534.323 711.042 539.915C711.014 545.507 716.334 550.067 722.926 550.1C729.517 550.133 734.883 545.627 734.911 540.036Z" fill="#FFC947"/>
<path fill-rule="evenodd" clip-rule="evenodd" d="M898.817 540.864C898.864 531.544 889.997 523.944 879.011 523.888C868.024 523.833 859.081 531.343 859.034 540.663C858.987 549.982 867.854 557.582 878.84 557.638C889.826 557.693 898.77 550.183 898.817 540.864ZM890.86 540.823C890.888 535.232 885.568 530.671 878.976 530.638C872.385 530.605 867.019 535.111 866.99 540.703C866.962 546.295 872.283 550.855 878.874 550.888C885.465 550.921 890.832 546.415 890.86 540.823Z" fill="#FFC947"/>
<path d="M738.091 540.727L866.191 541.374" stroke="#FFC947" stroke-width="24"/>
</g>
<defs>
<clipPath id="clip0_1_2">
<rect width="1080" height="1080" fill="white"/>
</clipPath>
</defs>
</svg>
